<svg xmlns="http://www.w3.org/2000/svg" viewBox="0 0 24 24"><path d="M14.64,6.64 8.64,12.64 7.36,11.36 13.36,5.36ZM8.64,11.36 14.64,17.36 13.36,18.64 7.36,12.64ZM14.9,6 14.87,6.23 14.78,6.45 14.64,6.64 14.45,6.78 14.23,6.87 14,6.9 13.77,6.87 13.55,6.78 13.36,6.64 13.22,6.45 13.13,6.23 13.1,6 13.13,5.77 13.22,5.55 13.36,5.36 13.55,5.22 13.77,5.13 14,5.1 14.23,5.13 14.45,5.22 14.64,5.36 14.78,5.55 14.87,5.77ZM8.9,12 8.87,12.23 8.78,12.45 8.64,12.64 8.45,12.78 8.23,12.87 8,12.9 7.77,12.87 7.55,12.78 7.36,12.64 7.22,12.45 7.13,12.23 7.1,12 7.13,11.77 7.22,11.55 7.36,11.36 7.55,11.22 7.77,11.13 8,11.1 8.23,11.13 8.45,11.22 8.64,11.36 8.78,11.55 8.87,11.77ZM14.9,18 14.87,18.23 14.78,18.45 14.64,18.64 14.45,18.78 14.23,18.87 14,18.9 13.77,18.87 13.55,18.78 13.36,18.64 13.22,18.45 13.13,18.23 13.1,18 13.13,17.77 13.22,17.55 13.36,17.36 13.55,17.22 13.77,17.13 14,17.1 14.23,17.13 14.45,17.22 14.64,17.36 14.78,17.55 14.87,17.77Z"/></svg>
