<svg xmlns="http://www.w3.org/2000/svg" viewBox="0 0 24 24"><path d="M3.6,5.96 3.62,5.61 5.41,5.69 5.4,6.04ZM3.62,5.52 3.67,5.2 5.45,5.46 5.41,5.78ZM3.69,5.1 3.77,4.81 5.51,5.27 5.43,5.56ZM3.81,4.69 3.91,4.44 5.58,5.12 5.47,5.38ZM3.97,4.31 4.11,4.09 5.65,5.01 5.52,5.24ZM4.19,3.97 4.36,3.77 5.74,4.93 5.57,5.13ZM4.47,3.66 4.67,3.49 5.83,4.87 5.63,5.04ZM4.79,3.41 5.01,3.27 5.94,4.82 5.71,4.95ZM5.14,3.21 5.39,3.11 6.08,4.77 5.82,4.88ZM5.51,3.07 5.8,2.99 6.26,4.73 5.97,4.81ZM5.9,2.97 6.22,2.92 6.48,4.71 6.16,4.75ZM6.31,2.92 6.66,2.9 6.74,4.7 6.39,4.71ZM6.7,2.9 17.3,2.9 17.3,4.7 6.7,4.7ZM17.34,2.9 17.69,2.92 17.61,4.71 17.26,4.7ZM17.78,2.92 18.1,2.97 17.84,4.75 17.52,4.71ZM18.2,2.99 18.49,3.07 18.03,4.81 17.74,4.73ZM18.61,3.11 18.86,3.21 18.18,4.88 17.92,4.77ZM18.99,3.27 19.21,3.41 18.29,4.95 18.06,4.82ZM19.33,3.49 19.53,3.66 18.37,5.04 18.17,4.87ZM19.64,3.77 19.81,3.97 18.43,5.13 18.26,4.93ZM19.89,4.09 20.03,4.31 18.48,5.24 18.35,5.01ZM20.09,4.44 20.19,4.69 18.53,5.38 18.42,5.12ZM20.23,4.81 20.31,5.1 18.57,5.56 18.49,5.27ZM20.33,5.2 20.38,5.52 18.59,5.78 18.55,5.46ZM20.38,5.61 20.4,5.96 18.6,6.04 18.59,5.69ZM20.4,6 20.4,19.3 18.6,19.3 18.6,6ZM20.4,19.34 20.38,19.69 18.59,19.61 18.6,19.26ZM20.38,19.78 20.33,20.1 18.55,19.84 18.59,19.52ZM20.31,20.2 20.23,20.49 18.49,20.03 18.57,19.74ZM20.19,20.61 20.09,20.86 18.42,20.18 18.53,19.92ZM20.03,20.99 19.89,21.21 18.35,20.29 18.48,20.06ZM19.81,21.33 19.64,21.53 18.26,20.37 18.43,20.17ZM19.53,21.64 19.33,21.81 18.17,20.43 18.37,20.26ZM19.21,21.89 18.99,22.03 18.06,20.48 18.29,20.35ZM18.86,22.09 18.61,22.19 17.92,20.53 18.18,20.42ZM18.49,22.23 18.2,22.31 17.74,20.57 18.03,20.49ZM18.1,22.33 17.78,22.38 17.52,20.59 17.84,20.55ZM17.69,22.38 17.34,22.4 17.26,20.6 17.61,20.59ZM17.3,22.4 6.7,22.4 6.7,20.6 17.3,20.6ZM6.66,22.4 6.31,22.38 6.39,20.59 6.74,20.6ZM6.22,22.38 5.9,22.33 6.16,20.55 6.48,20.59ZM5.8,22.31 5.51,22.23 5.97,20.49 6.26,20.57ZM5.39,22.19 5.14,22.09 5.82,20.42 6.08,20.53ZM5.01,22.03 4.79,21.89 5.71,20.35 5.94,20.48ZM4.67,21.81 4.47,21.64 5.63,20.26 5.83,20.43ZM4.36,21.53 4.19,21.33 5.57,20.17 5.74,20.37ZM4.11,21.21 3.97,20.99 5.52,20.06 5.65,20.29ZM3.91,20.86 3.81,20.61 5.47,19.92 5.58,20.18ZM3.77,20.49 3.69,20.2 5.43,19.74 5.51,20.03ZM3.67,20.1 3.62,19.78 5.41,19.52 5.45,19.84ZM3.62,19.69 3.6,19.34 5.4,19.26 5.41,19.61ZM3.6,19.3 3.6,6 5.4,6 5.4,19.3ZM5.4,6 5.37,6.23 5.28,6.45 5.14,6.64 4.95,6.78 4.73,6.87 4.5,6.9 4.27,6.87 4.05,6.78 3.86,6.64 3.72,6.45 3.63,6.23 3.6,6 3.63,5.77 3.72,5.55 3.86,5.36 4.05,5.22 4.27,5.13 4.5,5.1 4.73,5.13 4.95,5.22 5.14,5.36 5.28,5.55 5.37,5.77ZM4.52,5.65 5.41,5.69 5.41,5.78ZM4.52,5.65 3.62,5.61 3.62,5.52ZM4.56,5.33 5.45,5.46 5.43,5.56ZM4.56,5.33 3.67,5.2 3.69,5.1ZM4.64,5.04 5.51,5.27 5.47,5.38ZM4.64,5.04 3.77,4.81 3.81,4.69ZM4.74,4.78 5.58,5.12 5.52,5.24ZM4.74,4.78 3.91,4.44 3.97,4.31ZM4.88,4.55 5.65,5.01 5.57,5.13ZM4.88,4.55 4.11,4.09 4.19,3.97ZM5.05,4.35 5.74,4.93 5.63,5.04ZM5.05,4.35 4.36,3.77 4.47,3.66ZM5.25,4.18 5.83,4.87 5.71,4.95ZM5.25,4.18 4.67,3.49 4.79,3.41ZM5.48,4.04 5.94,4.82 5.82,4.88ZM5.48,4.04 5.01,3.27 5.14,3.21ZM5.74,3.94 6.08,4.77 5.97,4.81ZM5.74,3.94 5.39,3.11 5.51,3.07ZM6.03,3.86 6.26,4.73 6.16,4.75ZM6.03,3.86 5.8,2.99 5.9,2.97ZM6.35,3.82 6.48,4.71 6.39,4.71ZM6.35,3.82 6.22,2.92 6.31,2.92ZM6.7,3.8 6.74,4.7 6.7,4.7ZM6.7,3.8 6.66,2.9 6.7,2.9ZM17.3,3.8 17.3,4.7 17.26,4.7ZM17.3,3.8 17.3,2.9 17.34,2.9ZM17.65,3.82 17.61,4.71 17.52,4.71ZM17.65,3.82 17.69,2.92 17.78,2.92ZM17.97,3.86 17.84,4.75 17.74,4.73ZM17.97,3.86 18.1,2.97 18.2,2.99ZM18.26,3.94 18.03,4.81 17.92,4.77ZM18.26,3.94 18.49,3.07 18.61,3.11ZM18.52,4.04 18.18,4.88 18.06,4.82ZM18.52,4.04 18.86,3.21 18.99,3.27ZM18.75,4.18 18.29,4.95 18.17,4.87ZM18.75,4.18 19.21,3.41 19.33,3.49ZM18.95,4.35 18.37,5.04 18.26,4.93ZM18.95,4.35 19.53,3.66 19.64,3.77ZM19.12,4.55 18.43,5.13 18.35,5.01ZM19.12,4.55 19.81,3.97 19.89,4.09ZM19.26,4.78 18.48,5.24 18.42,5.12ZM19.26,4.78 20.03,4.31 20.09,4.44ZM19.36,5.04 18.53,5.38 18.49,5.27ZM19.36,5.04 20.19,4.69 20.23,4.81ZM19.44,5.33 18.57,5.56 18.55,5.46ZM19.44,5.33 20.31,5.1 20.33,5.2ZM19.48,5.65 18.59,5.78 18.59,5.69ZM19.48,5.65 20.38,5.52 20.38,5.61ZM19.5,6 18.6,6.04 18.6,6ZM19.5,6 20.4,5.96 20.4,6ZM19.5,19.3 18.6,19.3 18.6,19.26ZM19.5,19.3 20.4,19.3 20.4,19.34ZM19.48,19.65 18.59,19.61 18.59,19.52ZM19.48,19.65 20.38,19.69 20.38,19.78ZM19.44,19.97 18.55,19.84 18.57,19.74ZM19.44,19.97 20.33,20.1 20.31,20.2ZM19.36,20.26 18.49,20.03 18.53,19.92ZM19.36,20.26 20.23,20.49 20.19,20.61ZM19.26,20.52 18.42,20.18 18.48,20.06ZM19.26,20.52 20.09,20.86 20.03,20.99ZM19.12,20.75 18.35,20.29 18.43,20.17ZM19.12,20.75 19.89,21.21 19.81,21.33ZM18.95,20.95 18.26,20.37 18.37,20.26ZM18.95,20.95 19.64,21.53 19.53,21.64ZM18.75,21.12 18.17,20.43 18.29,20.35ZM18.75,21.12 19.33,21.81 19.21,21.89ZM18.52,21.26 18.06,20.48 18.18,20.42ZM18.52,21.26 18.99,22.03 18.86,22.09ZM18.26,21.36 17.92,20.53 18.03,20.49ZM18.26,21.36 18.61,22.19 18.49,22.23ZM17.97,21.44 17.74,20.57 17.84,20.55ZM17.97,21.44 18.2,22.31 18.1,22.33ZM17.65,21.48 17.52,20.59 17.61,20.59ZM17.65,21.48 17.78,22.38 17.69,22.38ZM17.3,21.5 17.26,20.6 17.3,20.6ZM17.3,21.5 17.34,22.4 17.3,22.4ZM6.7,21.5 6.7,20.6 6.74,20.6ZM6.7,21.5 6.7,22.4 6.66,22.4ZM6.35,21.48 6.39,20.59 6.48,20.59ZM6.35,21.48 6.31,22.38 6.22,22.38ZM6.03,21.44 6.16,20.55 6.26,20.57ZM6.03,21.44 5.9,22.33 5.8,22.31ZM5.74,21.36 5.97,20.49 6.08,20.53ZM5.74,21.36 5.51,22.23 5.39,22.19ZM5.48,21.26 5.82,20.42 5.94,20.48ZM5.48,21.26 5.14,22.09 5.01,22.03ZM5.25,21.12 5.71,20.35 5.83,20.43ZM5.25,21.12 4.79,21.89 4.67,21.81ZM5.05,20.95 5.63,20.26 5.74,20.37ZM5.05,20.95 4.47,21.64 4.36,21.53ZM4.88,20.75 5.57,20.17 5.65,20.29ZM4.88,20.75 4.19,21.33 4.11,21.21ZM4.74,20.52 5.52,20.06 5.58,20.18ZM4.74,20.52 3.97,20.99 3.91,20.86ZM4.64,20.26 5.47,19.92 5.51,20.03ZM4.64,20.26 3.81,20.61 3.77,20.49ZM4.56,19.97 5.43,19.74 5.45,19.84ZM4.56,19.97 3.69,20.2 3.67,20.1ZM4.52,19.65 5.41,19.52 5.41,19.61ZM4.52,19.65 3.62,19.78 3.62,19.69ZM4.5,19.3 5.4,19.26 5.4,19.3ZM4.5,19.3 3.6,19.34 3.6,19.3ZM5.4,6 5.37,6.23 5.28,6.45 5.14,6.64 4.95,6.78 4.73,6.87 4.5,6.9 4.27,6.87 4.05,6.78 3.86,6.64 3.72,6.45 3.63,6.23 3.6,6 3.63,5.77 3.72,5.55 3.86,5.36 4.05,5.22 4.27,5.13 4.5,5.1 4.73,5.13 4.95,5.22 5.14,5.36 5.28,5.55 5.37,5.77ZM8.5,3.1 8.51,2.96 8.53,2.83 8.56,2.71 8.6,2.6 8.66,2.51 8.72,2.42 8.81,2.36 8.9,2.3 9.01,2.26 9.12,2.23 9.26,2.21 9.4,2.2 14.6,2.2 14.74,2.21 14.88,2.23 14.99,2.26 15.1,2.3 15.19,2.36 15.28,2.43 15.34,2.51 15.4,2.6 15.44,2.71 15.48,2.83 15.49,2.96 15.5,3.1 15.5,5.1 15.49,5.24 15.48,5.38 15.44,5.49 15.4,5.6 15.34,5.69 15.28,5.78 15.19,5.84 15.1,5.9 14.99,5.94 14.88,5.97 14.74,5.99 14.6,6 9.4,6 9.26,5.99 9.12,5.98 9.01,5.94 8.9,5.9 8.81,5.84 8.72,5.78 8.66,5.69 8.6,5.6 8.56,5.49 8.53,5.38 8.51,5.24 8.5,5.1ZM8.5,10.1 15.5,10.1 15.5,11.9 8.5,11.9ZM9.4,11 9.37,11.23 9.28,11.45 9.14,11.64 8.95,11.78 8.73,11.87 8.5,11.9 8.27,11.87 8.05,11.78 7.86,11.64 7.72,11.45 7.63,11.23 7.6,11 7.63,10.77 7.72,10.55 7.86,10.36 8.05,10.22 8.27,10.13 8.5,10.1 8.73,10.13 8.95,10.22 9.14,10.36 9.28,10.55 9.37,10.77ZM16.4,11 16.37,11.23 16.28,11.45 16.14,11.64 15.95,11.78 15.73,11.87 15.5,11.9 15.27,11.87 15.05,11.78 14.86,11.64 14.72,11.45 14.63,11.23 14.6,11 14.63,10.77 14.72,10.55 14.86,10.36 15.05,10.22 15.27,10.13 15.5,10.1 15.73,10.13 15.95,10.22 16.14,10.36 16.28,10.55 16.37,10.77ZM8.5,14.1 13,14.1 13,15.9 8.5,15.9ZM9.4,15 9.37,15.23 9.28,15.45 9.14,15.64 8.95,15.78 8.73,15.87 8.5,15.9 8.27,15.87 8.05,15.78 7.86,15.64 7.72,15.45 7.63,15.23 7.6,15 7.63,14.77 7.72,14.55 7.86,14.36 8.05,14.22 8.27,14.13 8.5,14.1 8.73,14.13 8.95,14.22 9.14,14.36 9.28,14.55 9.37,14.77ZM13.9,15 13.87,15.23 13.78,15.45 13.64,15.64 13.45,15.78 13.23,15.87 13,15.9 12.77,15.87 12.55,15.78 12.36,15.64 12.22,15.45 12.13,15.23 12.1,15 12.13,14.77 12.22,14.55 12.36,14.36 12.55,14.22 12.77,14.13 13,14.1 13.23,14.13 13.45,14.22 13.64,14.36 13.78,14.55 13.87,14.77Z"/></svg>
