<svg xmlns="http://www.w3.org/2000/svg" viewBox="0 0 24 24"><path d="M10.55,2.76 10.72,2.67 11.51,4.29 11.34,4.37ZM10.78,2.64 10.96,2.57 11.63,4.24 11.45,4.31ZM11.03,2.55 11.2,2.49 11.74,4.21 11.56,4.27ZM11.28,2.47 11.45,2.44 11.84,4.19 11.67,4.23ZM11.53,2.42 11.7,2.4 11.94,4.18 11.77,4.21ZM11.78,2.39 11.96,2.38 12.04,4.18 11.86,4.19ZM12.04,2.38 12.22,2.39 12.14,4.19 11.96,4.18ZM12.3,2.4 12.47,2.42 12.23,4.21 12.06,4.18ZM12.55,2.44 12.72,2.47 12.33,4.23 12.16,4.19ZM12.8,2.49 12.97,2.55 12.44,4.27 12.26,4.21ZM13.04,2.57 13.22,2.64 12.55,4.31 12.37,4.24ZM13.28,2.67 13.45,2.76 12.66,4.37 12.49,4.29ZM13.48,2.77 20.36,6.44 19.52,8.03 12.64,4.36ZM20.39,6.46 20.56,6.55 19.65,8.11 19.49,8.01ZM20.62,6.6 20.76,6.69 19.71,8.16 19.58,8.06ZM20.84,6.76 20.95,6.85 19.73,8.18 19.63,8.09ZM21.05,6.96 21.12,7.06 19.7,8.17 19.63,8.07ZM21.23,7.23 21.27,7.32 19.64,8.09 19.6,7.99ZM21.35,7.57 21.36,7.66 19.58,7.94 19.57,7.84ZM21.36,7.94 21.35,8.03 19.57,7.76 19.58,7.66ZM21.27,8.28 21.23,8.37 19.6,7.61 19.64,7.51ZM21.12,8.54 21.05,8.64 19.63,7.53 19.7,7.43ZM20.95,8.75 20.84,8.84 19.63,7.51 19.73,7.42ZM20.76,8.91 20.62,9 19.58,7.54 19.71,7.44ZM20.56,9.05 20.39,9.14 19.49,7.59 19.65,7.49ZM20.36,9.16 13.48,12.83 12.64,11.24 19.52,7.57ZM13.45,12.84 13.28,12.93 12.49,11.31 12.66,11.23ZM13.22,12.96 13.04,13.03 12.37,11.36 12.55,11.29ZM12.97,13.05 12.8,13.11 12.26,11.39 12.44,11.33ZM12.72,13.13 12.55,13.16 12.16,11.41 12.33,11.37ZM12.47,13.18 12.3,13.2 12.06,11.42 12.23,11.39ZM12.22,13.21 12.04,13.22 11.96,11.42 12.14,11.41ZM11.96,13.22 11.78,13.21 11.86,11.41 12.04,11.42ZM11.7,13.2 11.53,13.18 11.77,11.39 11.94,11.42ZM11.45,13.16 11.28,13.13 11.67,11.37 11.84,11.41ZM11.2,13.11 11.03,13.05 11.56,11.33 11.74,11.39ZM10.96,13.03 10.78,12.96 11.45,11.29 11.63,11.36ZM10.72,12.93 10.55,12.84 11.34,11.23 11.51,11.31ZM10.52,12.83 3.64,9.16 4.48,7.57 11.36,11.24ZM3.61,9.14 3.44,9.05 4.35,7.49 4.51,7.59ZM3.38,9 3.24,8.91 4.29,7.44 4.42,7.54ZM3.16,8.84 3.05,8.75 4.27,7.42 4.37,7.51ZM2.95,8.64 2.88,8.54 4.3,7.43 4.37,7.53ZM2.77,8.37 2.73,8.28 4.36,7.51 4.4,7.61ZM2.65,8.03 2.64,7.94 4.42,7.66 4.43,7.76ZM2.64,7.66 2.65,7.57 4.43,7.84 4.42,7.94ZM2.73,7.32 2.77,7.23 4.4,7.99 4.36,8.09ZM2.88,7.06 2.95,6.96 4.37,8.07 4.3,8.17ZM3.05,6.85 3.16,6.76 4.37,8.09 4.27,8.18ZM3.24,6.69 3.38,6.6 4.42,8.06 4.29,8.16ZM3.44,6.55 3.61,6.46 4.51,8.01 4.35,8.11ZM3.64,6.44 10.52,2.77 11.36,4.36 4.48,8.03ZM11.84,3.56 11.81,3.8 11.72,4.01 11.58,4.2 11.39,4.34 11.17,4.43 10.94,4.46 10.71,4.43 10.49,4.34 10.3,4.2 10.16,4.01 10.07,3.8 10.04,3.56 10.07,3.33 10.16,3.11 10.3,2.93 10.49,2.79 10.71,2.7 10.94,2.66 11.17,2.7 11.39,2.79 11.58,2.93 11.72,3.11 11.81,3.33ZM11.12,3.48 11.51,4.29 11.45,4.31ZM11.12,3.48 10.72,2.67 10.78,2.64ZM11.29,3.41 11.63,4.24 11.56,4.27ZM11.29,3.41 10.96,2.57 11.03,2.55ZM11.47,3.35 11.74,4.21 11.67,4.23ZM11.47,3.35 11.2,2.49 11.28,2.47ZM11.65,3.31 11.84,4.19 11.77,4.21ZM11.65,3.31 11.45,2.44 11.53,2.42ZM11.82,3.29 11.94,4.18 11.86,4.19ZM11.82,3.29 11.7,2.4 11.78,2.39ZM12,3.28 12.04,4.18 11.96,4.18ZM12,3.28 11.96,2.38 12.04,2.38ZM12.18,3.29 12.14,4.19 12.06,4.18ZM12.18,3.29 12.22,2.39 12.3,2.4ZM12.35,3.31 12.23,4.21 12.16,4.19ZM12.35,3.31 12.47,2.42 12.55,2.44ZM12.53,3.35 12.33,4.23 12.26,4.21ZM12.53,3.35 12.72,2.47 12.8,2.49ZM12.71,3.41 12.44,4.27 12.37,4.24ZM12.71,3.41 12.97,2.55 13.04,2.57ZM12.88,3.48 12.55,4.31 12.49,4.29ZM12.88,3.48 13.22,2.64 13.28,2.67ZM13.06,3.56 12.66,4.37 12.64,4.36ZM13.06,3.56 13.45,2.76 13.48,2.77ZM19.94,7.24 19.52,8.03 19.49,8.01ZM19.94,7.24 20.36,6.44 20.39,6.46ZM20.1,7.33 19.65,8.11 19.58,8.06ZM20.1,7.33 20.56,6.55 20.62,6.6ZM20.24,7.42 19.71,8.16 19.63,8.09ZM20.24,7.42 20.76,6.69 20.84,6.76ZM20.34,7.52 19.73,8.18 19.63,8.07ZM20.34,7.52 20.95,6.85 21.05,6.96ZM20.41,7.61 19.7,8.17 19.6,7.99ZM20.41,7.61 21.12,7.06 21.23,7.23ZM21.36,7.71 21.33,7.94 21.24,8.16 21.09,8.34 20.91,8.49 20.69,8.58 20.46,8.61 20.22,8.58 20.01,8.49 19.82,8.34 19.68,8.16 19.59,7.94 19.56,7.71 19.59,7.47 19.68,7.26 19.82,7.07 20.01,6.93 20.22,6.84 20.46,6.81 20.69,6.84 20.91,6.93 21.09,7.07 21.24,7.26 21.33,7.47ZM21.37,7.8 21.34,8.03 21.25,8.25 21.11,8.44 20.92,8.58 20.7,8.67 20.47,8.7 20.24,8.67 20.02,8.58 19.83,8.44 19.69,8.25 19.6,8.03 19.57,7.8 19.6,7.57 19.69,7.35 19.83,7.16 20.02,7.02 20.24,6.93 20.47,6.9 20.7,6.93 20.92,7.02 21.11,7.16 21.25,7.35 21.34,7.57ZM21.36,7.89 21.33,8.13 21.24,8.34 21.09,8.53 20.91,8.67 20.69,8.76 20.46,8.79 20.22,8.76 20.01,8.67 19.82,8.53 19.68,8.34 19.59,8.13 19.56,7.89 19.59,7.66 19.68,7.44 19.82,7.26 20.01,7.11 20.22,7.02 20.46,6.99 20.69,7.02 20.91,7.11 21.09,7.26 21.24,7.44 21.33,7.66ZM20.41,7.99 19.6,7.61 19.7,7.43ZM20.41,7.99 21.23,8.37 21.12,8.54ZM20.34,8.08 19.63,7.53 19.73,7.42ZM20.34,8.08 21.05,8.64 20.95,8.75ZM20.24,8.18 19.63,7.51 19.71,7.44ZM20.24,8.18 20.84,8.84 20.76,8.91ZM20.1,8.27 19.58,7.54 19.65,7.49ZM20.1,8.27 20.62,9 20.56,9.05ZM19.94,8.36 19.49,7.59 19.52,7.57ZM19.94,8.36 20.39,9.14 20.36,9.16ZM13.06,12.04 12.64,11.24 12.66,11.23ZM13.06,12.04 13.48,12.83 13.45,12.84ZM12.88,12.12 12.49,11.31 12.55,11.29ZM12.88,12.12 13.28,12.93 13.22,12.96ZM12.71,12.19 12.37,11.36 12.44,11.33ZM12.71,12.19 13.04,13.03 12.97,13.05ZM12.53,12.25 12.26,11.39 12.33,11.37ZM12.53,12.25 12.8,13.11 12.72,13.13ZM12.35,12.29 12.16,11.41 12.23,11.39ZM12.35,12.29 12.55,13.16 12.47,13.18ZM12.18,12.31 12.06,11.42 12.14,11.41ZM12.18,12.31 12.3,13.2 12.22,13.21ZM12,12.32 11.96,11.42 12.04,11.42ZM12,12.32 12.04,13.22 11.96,13.22ZM11.82,12.31 11.86,11.41 11.94,11.42ZM11.82,12.31 11.78,13.21 11.7,13.2ZM11.65,12.29 11.77,11.39 11.84,11.41ZM11.65,12.29 11.53,13.18 11.45,13.16ZM11.47,12.25 11.67,11.37 11.74,11.39ZM11.47,12.25 11.28,13.13 11.2,13.11ZM11.29,12.19 11.56,11.33 11.63,11.36ZM11.29,12.19 11.03,13.05 10.96,13.03ZM11.12,12.12 11.45,11.29 11.51,11.31ZM11.12,12.12 10.78,12.96 10.72,12.93ZM10.94,12.04 11.34,11.23 11.36,11.24ZM10.94,12.04 10.55,12.84 10.52,12.83ZM4.06,8.36 4.48,7.57 4.51,7.59ZM4.06,8.36 3.64,9.16 3.61,9.14ZM3.9,8.27 4.35,7.49 4.42,7.54ZM3.9,8.27 3.44,9.05 3.38,9ZM3.76,8.18 4.29,7.44 4.37,7.51ZM3.76,8.18 3.24,8.91 3.16,8.84ZM3.66,8.08 4.27,7.42 4.37,7.53ZM3.66,8.08 3.05,8.75 2.95,8.64ZM3.59,7.99 4.3,7.43 4.4,7.61ZM3.59,7.99 2.88,8.54 2.77,8.37ZM4.44,7.89 4.41,8.13 4.32,8.34 4.18,8.53 3.99,8.67 3.78,8.76 3.54,8.79 3.31,8.76 3.09,8.67 2.91,8.53 2.76,8.34 2.67,8.13 2.64,7.89 2.67,7.66 2.76,7.44 2.91,7.26 3.09,7.11 3.31,7.02 3.54,6.99 3.78,7.02 3.99,7.11 4.18,7.26 4.32,7.44 4.41,7.66ZM4.43,7.8 4.4,8.03 4.31,8.25 4.17,8.44 3.98,8.58 3.76,8.67 3.53,8.7 3.3,8.67 3.08,8.58 2.89,8.44 2.75,8.25 2.66,8.03 2.63,7.8 2.66,7.57 2.75,7.35 2.89,7.16 3.08,7.02 3.3,6.93 3.53,6.9 3.76,6.93 3.98,7.02 4.17,7.16 4.31,7.35 4.4,7.57ZM4.44,7.71 4.41,7.94 4.32,8.16 4.18,8.34 3.99,8.49 3.78,8.58 3.54,8.61 3.31,8.58 3.09,8.49 2.91,8.34 2.76,8.16 2.67,7.94 2.64,7.71 2.67,7.47 2.76,7.26 2.91,7.07 3.09,6.93 3.31,6.84 3.54,6.81 3.78,6.84 3.99,6.93 4.18,7.07 4.32,7.26 4.41,7.47ZM3.59,7.61 4.4,7.99 4.3,8.17ZM3.59,7.61 2.77,7.23 2.88,7.06ZM3.66,7.52 4.37,8.07 4.27,8.18ZM3.66,7.52 2.95,6.96 3.05,6.85ZM3.76,7.42 4.37,8.09 4.29,8.16ZM3.76,7.42 3.16,6.76 3.24,6.69ZM3.9,7.33 4.42,8.06 4.35,8.11ZM3.9,7.33 3.38,6.6 3.44,6.55ZM4.06,7.24 4.51,8.01 4.48,8.03ZM4.06,7.24 3.61,6.46 3.64,6.44ZM11.84,3.56 11.81,3.8 11.72,4.01 11.58,4.2 11.39,4.34 11.17,4.43 10.94,4.46 10.71,4.43 10.49,4.34 10.3,4.2 10.16,4.01 10.07,3.8 10.04,3.56 10.07,3.33 10.16,3.11 10.3,2.93 10.49,2.79 10.71,2.7 10.94,2.66 11.17,2.7 11.39,2.79 11.58,2.93 11.72,3.11 11.81,3.33ZM3.42,11.41 12.42,16.21 11.58,17.79 2.58,12.99ZM11.58,16.21 20.58,11.41 21.42,12.99 12.42,17.79ZM3.9,12.2 3.87,12.43 3.78,12.65 3.64,12.84 3.45,12.98 3.23,13.07 3,13.1 2.77,13.07 2.55,12.98 2.36,12.84 2.22,12.65 2.13,12.43 2.1,12.2 2.13,11.97 2.22,11.75 2.36,11.56 2.55,11.42 2.77,11.33 3,11.3 3.23,11.33 3.45,11.42 3.64,11.56 3.78,11.75 3.87,11.97ZM12.9,17 12.87,17.23 12.78,17.45 12.64,17.64 12.45,17.78 12.23,17.87 12,17.9 11.77,17.87 11.55,17.78 11.36,17.64 11.22,17.45 11.13,17.23 11.1,17 11.13,16.77 11.22,16.55 11.36,16.36 11.55,16.22 11.77,16.13 12,16.1 12.23,16.13 12.45,16.22 12.64,16.36 12.78,16.55 12.87,16.77ZM21.9,12.2 21.87,12.43 21.78,12.65 21.64,12.84 21.45,12.98 21.23,13.07 21,13.1 20.77,13.07 20.55,12.98 20.36,12.84 20.22,12.65 20.13,12.43 20.1,12.2 20.13,11.97 20.22,11.75 20.36,11.56 20.55,11.42 20.77,11.33 21,11.3 21.23,11.33 21.45,11.42 21.64,11.56 21.78,11.75 21.87,11.97ZM3.42,15.61 12.42,20.41 11.58,21.99 2.58,17.19ZM11.58,20.41 20.58,15.61 21.42,17.19 12.42,21.99ZM3.9,16.4 3.87,16.63 3.78,16.85 3.64,17.04 3.45,17.18 3.23,17.27 3,17.3 2.77,17.27 2.55,17.18 2.36,17.04 2.22,16.85 2.13,16.63 2.1,16.4 2.13,16.17 2.22,15.95 2.36,15.76 2.55,15.62 2.77,15.53 3,15.5 3.23,15.53 3.45,15.62 3.64,15.76 3.78,15.95 3.87,16.17ZM12.9,21.2 12.87,21.43 12.78,21.65 12.64,21.84 12.45,21.98 12.23,22.07 12,22.1 11.77,22.07 11.55,21.98 11.36,21.84 11.22,21.65 11.13,21.43 11.1,21.2 11.13,20.97 11.22,20.75 11.36,20.56 11.55,20.42 11.77,20.33 12,20.3 12.23,20.33 12.45,20.42 12.64,20.56 12.78,20.75 12.87,20.97ZM21.9,16.4 21.87,16.63 21.78,16.85 21.64,17.04 21.45,17.18 21.23,17.27 21,17.3 20.77,17.27 20.55,17.18 20.36,17.04 20.22,16.85 20.13,16.63 20.1,16.4 20.13,16.17 20.22,15.95 20.36,15.76 20.55,15.62 20.77,15.53 21,15.5 21.23,15.53 21.45,15.62 21.64,15.76 21.78,15.95 21.87,16.17Z"/></svg>
